<?xml version="1.0" standalone="no"?>
<!DOCTYPE svg PUBLIC "-//W3C//DTD SVG 20010904//EN"
 "http://www.w3.org/TR/2001/REC-SVG-20010904/DTD/svg10.dtd">
<svg version="1.0" xmlns="http://www.w3.org/2000/svg"
 width="512.000000pt" height="512.000000pt" viewBox="0 0 512.000000 512.000000"
 preserveAspectRatio="xMidYMid meet">

<g transform="translate(0.000000,512.000000) scale(0.100000,-0.100000)"
fill="#000000" stroke="none">
<path d="M3150 3920 c-8 -5 -29 -10 -46 -10 -33 0 -64 -26 -64 -52 0 -9 -7
-18 -15 -21 -21 -9 -18 -97 4 -97 13 0 14 -2 2 -9 -12 -8 -12 -12 -2 -24 8
-10 8 -16 1 -19 -6 -2 -15 -34 -20 -71 -13 -86 -25 -109 -97 -178 -85 -82 -87
-83 -303 -83 -144 -1 -177 2 -257 23 -67 18 -93 29 -93 40 0 14 -1 14 -10 1
-8 -13 -10 -12 -10 3 0 10 -8 17 -18 17 -10 0 -23 5 -30 12 -7 7 -12 9 -12 6
0 -6 -21 10 -77 60 -17 14 -33 20 -45 16 -14 -4 -18 -1 -16 9 2 8 -16 35 -39
60 -25 27 -44 58 -48 80 -8 39 -38 55 -64 34 -10 -8 -13 -9 -8 0 4 6 1 14 -5
16 -8 3 -6 6 5 6 9 1 17 5 17 11 0 5 8 7 18 3 13 -5 14 -3 6 6 -9 10 -17 10
-33 2 -23 -13 -26 -6 -22 57 2 17 -2 32 -8 32 -6 0 -10 3 -10 8 5 28 -5 40
-42 52 -34 12 -42 12 -49 0 -5 -9 -5 -20 2 -27 7 -9 7 -13 0 -13 -5 0 -12 7
-16 15 -3 8 -10 15 -16 15 -6 0 -8 -4 -5 -10 3 -5 1 -10 -5 -10 -6 0 -9 -4 -6
-9 3 -5 -1 -12 -10 -15 -13 -5 -15 -15 -10 -47 4 -23 13 -48 22 -56 9 -9 12
-22 8 -32 -15 -36 -16 -61 -3 -61 11 -1 11 -3 -1 -13 -11 -8 -17 -32 -18 -72
-1 -33 -5 -68 -8 -77 -3 -10 -2 -18 3 -18 4 0 8 -45 8 -101 0 -55 5 -103 10
-107 6 -4 11 -30 13 -58 3 -68 -9 -76 -108 -80 -93 -3 -194 -27 -230 -53 -17
-12 -25 -28 -26 -49 0 -17 -5 -36 -11 -44 -6 -7 -20 -32 -31 -54 -12 -23 -28
-44 -37 -47 -8 -4 -14 -10 -13 -14 5 -16 -34 -62 -69 -83 -33 -20 -101 -73
-167 -132 -17 -16 -36 -28 -42 -28 -7 0 -43 -17 -81 -37 -143 -77 -145 -78
-213 -78 -83 1 -166 39 -232 107 -36 36 -55 48 -78 48 -45 0 -39 -28 18 -82
155 -150 201 -179 253 -163 11 4 33 2 49 -5 21 -8 34 -9 48 -1 25 14 40 -3 22
-24 -10 -12 -9 -16 3 -21 15 -5 15 -8 -1 -32 -16 -25 -16 -26 3 -19 19 7 19 6
2 -7 -22 -17 -22 -36 1 -37 14 0 13 -2 -5 -11 -20 -10 -22 -16 -19 -102 3 -92
46 -256 66 -256 5 0 19 -18 30 -40 14 -27 27 -40 41 -40 12 0 19 -5 17 -12 -3
-9 -32 -13 -89 -15 -139 -2 -188 -11 -277 -53 -47 -22 -91 -40 -98 -40 -16 0
-33 -30 -27 -48 3 -7 16 -17 29 -22 23 -9 23 -10 6 -40 -17 -30 -16 -31 7 -51
27 -22 51 -25 51 -5 0 20 65 57 135 78 109 32 259 18 400 -36 l90 -35 22 27
22 26 28 -20 c48 -35 91 -54 109 -47 11 4 15 3 10 -5 -4 -7 10 -13 41 -18 27
-4 59 -11 72 -16 15 -5 28 -4 37 3 8 6 14 7 14 2 0 -16 54 -14 129 5 61 15 83
16 139 7 36 -6 67 -16 70 -23 2 -7 7 -10 12 -7 4 3 10 -1 13 -9 3 -8 -1 -17
-9 -20 -12 -5 -13 -19 -8 -73 4 -38 13 -75 20 -84 22 -25 101 -13 91 14 -2 7
5 25 16 40 l20 29 17 -27 c17 -27 60 -62 60 -49 0 3 7 1 15 -6 8 -7 13 -16 10
-20 -2 -4 19 -17 48 -29 29 -12 63 -28 77 -36 25 -13 102 -32 172 -42 50 -7
205 16 222 32 13 14 97 45 120 45 48 0 176 90 176 123 0 7 9 18 19 24 13 8 18
21 17 38 -2 14 0 25 3 25 3 0 14 14 24 31 22 39 23 89 1 89 -8 0 -12 4 -9 10
3 5 16 9 28 8 12 0 28 1 36 3 10 3 17 -7 21 -31 8 -45 17 -60 36 -60 9 0 14
-7 12 -17 -4 -22 62 -48 74 -29 6 8 8 7 8 -2 0 -7 4 -11 9 -8 11 7 41 -3 41
-14 0 -5 -10 -6 -22 -2 -21 5 -21 5 -2 -20 26 -35 51 -51 51 -32 0 8 -4 14 -9
14 -5 0 -7 4 -3 10 3 5 19 8 34 7 16 -1 27 -5 25 -9 -2 -3 2 -9 8 -11 10 -4
10 -6 0 -6 -7 -1 -10 -6 -6 -13 4 -7 3 -8 -5 -4 -6 4 -9 11 -6 16 3 4 -2 10
-10 14 -21 8 -19 -7 5 -37 17 -21 46 -34 90 -42 3 0 14 -6 25 -13 19 -13 19
-13 -3 -9 -12 3 -20 1 -16 -4 3 -5 10 -9 15 -9 6 0 17 -7 25 -15 9 -8 23 -15
33 -15 10 0 28 -11 41 -25 13 -14 27 -25 31 -25 5 0 25 -11 45 -25 28 -19 46
-24 68 -20 22 3 25 3 12 -3 -18 -8 -17 -10 11 -20 17 -5 34 -8 37 -5 3 4 6 1
6 -5 0 -7 5 -12 11 -12 6 0 17 -7 25 -15 16 -15 65 -21 78 -8 9 9 36 15 61 14
85 -5 119 -3 123 7 2 7 8 10 13 6 15 -9 10 13 -6 26 -9 7 -14 18 -12 24 3 6 0
19 -5 30 -7 13 -6 21 3 27 12 7 12 9 0 9 -9 0 -12 8 -9 25 4 20 2 23 -12 15
-12 -6 -17 -5 -17 6 0 7 5 14 10 14 6 0 2 9 -7 19 -17 18 -16 20 5 26 15 5 18
9 9 15 -8 5 -8 10 -2 14 11 7 11 24 -1 42 -4 8 2 11 18 10 14 0 25 -5 25 -10
0 -27 14 10 16 42 1 20 5 45 9 55 5 11 3 17 -5 17 -9 0 -8 5 3 18 22 24 48 88
39 97 -4 3 -7 12 -7 18 -1 7 -6 11 -13 9 -7 -1 -12 2 -12 8 0 5 5 10 10 10 6
0 10 9 10 21 0 11 -4 18 -9 15 -5 -4 -7 4 -3 16 3 14 2 19 -6 14 -7 -4 -12 -1
-12 9 0 10 5 13 11 9 8 -5 10 1 7 20 -3 14 -1 26 3 26 10 0 7 29 -4 47 -4 6
-4 19 0 29 4 11 3 15 -4 11 -6 -4 -14 0 -17 9 -4 10 -2 13 6 8 7 -4 8 -3 4 4
-4 7 -14 12 -22 12 -8 0 -12 5 -9 11 4 6 14 8 24 5 9 -4 5 3 -9 15 -14 11 -19
18 -12 14 17 -9 33 36 18 54 -9 12 -8 13 2 7 10 -6 13 -2 10 15 -2 13 -9 23
-16 21 -17 -3 -15 23 3 38 11 9 12 16 4 26 -6 7 -8 18 -4 24 3 5 0 10 -7 10
-9 0 -13 13 -13 40 0 22 2 40 6 40 11 0 18 40 8 46 -6 3 -5 11 2 20 16 19 -5
44 -38 44 -22 0 -24 2 -13 15 10 13 9 15 -8 15 -12 0 -24 5 -27 10 -4 6 5 10
20 10 23 0 24 2 15 20 -6 11 -7 20 -3 20 4 0 -5 7 -21 15 -46 24 -69 16 -80
-27 -5 -21 -16 -38 -23 -38 -8 0 -12 4 -9 9 3 4 -6 18 -19 31 -28 26 -117 46
-108 24 3 -8 8 -13 11 -12 4 1 22 -1 40 -5 31 -6 43 -29 22 -42 -6 -4 -9 -1
-8 6 2 7 -1 14 -7 14 -29 3 -74 17 -74 23 3 21 -3 31 -23 35 -13 2 0 5 27 6
36 1 46 4 35 11 -13 8 -12 10 3 10 18 0 24 19 7 21 -20 3 -25 4 -38 13 -11 7
-12 4 -3 -12 9 -17 8 -19 -9 -15 -11 3 -20 14 -20 23 0 10 -8 21 -19 25 -10 3
-31 16 -47 30 -21 18 -31 21 -41 13 -11 -8 -12 -7 -7 7 6 15 3 17 -14 13 -12
-4 -19 -2 -16 3 3 5 -8 12 -25 15 -16 4 -32 12 -35 20 -3 8 -15 14 -26 14 -11
0 -20 5 -20 11 0 6 -8 8 -17 5 -10 -3 -25 -1 -33 5 -12 8 -10 9 8 4 35 -10 26
4 -14 21 -19 8 -45 12 -56 8 -13 -4 -18 -2 -14 4 3 6 -4 18 -16 26 -12 9 -18
16 -13 16 6 0 10 15 10 33 -1 20 -5 31 -14 29 -7 -1 -10 2 -7 7 4 5 0 12 -6
14 -8 3 -6 6 5 6 9 1 17 8 17 17 0 8 -5 12 -11 9 -6 -4 -10 -1 -8 6 3 28 -1
38 -16 33 -8 -4 -15 -1 -15 5 0 6 6 11 14 11 8 0 16 6 19 13 6 18 -4 48 -14
41 -5 -3 -6 2 -3 10 4 10 1 16 -7 16 -8 0 -7 5 5 13 22 16 11 47 -16 47 -18 0
-18 1 -4 16 17 16 22 64 7 64 -5 0 -8 11 -7 24 0 13 4 22 8 20 3 -2 6 25 7 61
0 36 3 70 6 75 3 5 1 11 -5 15 -5 3 -10 11 -10 16 0 6 5 7 12 3 8 -5 9 -2 5 9
-3 10 -2 17 4 17 12 0 8 32 -6 42 -6 5 -5 8 2 8 10 0 12 17 9 64 -3 43 0 67 7
70 7 2 2 5 -11 5 -13 1 -20 5 -17 11 9 14 83 12 92 -3 14 -21 65 -39 77 -27 8
8 4 12 -12 17 -18 4 -20 8 -11 19 16 19 27 18 25 -3 0 -10 9 -19 24 -23 l25
-6 -25 -8 -25 -9 23 -4 c13 -3 29 1 37 7 8 6 20 8 26 4 9 -5 7 -10 -5 -20 -19
-13 -14 -18 26 -28 15 -3 30 -15 33 -27 4 -11 9 -18 12 -15 6 6 41 -21 125
-99 31 -29 64 -59 75 -66 10 -8 43 -43 73 -79 30 -36 58 -67 61 -70 12 -11 9
-114 -6 -194 -14 -77 -14 -89 0 -115 8 -17 15 -38 15 -47 0 -26 23 -84 33 -84
4 0 5 -4 2 -10 -3 -5 -1 -10 4 -10 6 0 11 -7 11 -15 0 -8 9 -15 21 -15 11 0
18 -4 15 -9 -3 -5 1 -14 10 -21 11 -10 17 -11 27 -1 11 11 14 43 19 154 1 20
6 27 20 27 19 0 20 7 18 138 -2 156 0 192 13 192 4 0 5 5 2 10 -4 6 -3 9 2 8
4 -1 18 4 29 11 29 19 20 44 -22 64 -19 9 -34 22 -34 28 0 7 5 8 13 3 7 -5 2
1 -12 13 -14 12 -28 20 -32 18 -3 -3 -14 4 -23 14 -11 12 -25 17 -38 13 -13
-3 -19 -1 -15 5 4 6 -1 17 -10 24 -13 11 -17 11 -20 1 -3 -6 -9 -10 -13 -7 -5
3 -4 16 2 30 16 35 4 52 -42 60 -31 5 -38 10 -31 19 16 19 3 26 -26 15 -33
-12 -37 -11 -25 4 9 10 1 22 -33 53 -25 21 -45 42 -45 46 0 14 -63 68 -84 73
-56 11 -76 11 -80 1 -2 -6 -5 0 -6 14 -1 14 -4 19 -7 13 -2 -7 -12 -13 -20
-13 -11 0 -14 8 -11 30 5 33 -8 41 -55 35 -15 -2 -25 1 -21 6 3 5 11 9 17 8 7
-1 21 -1 31 0 16 1 15 4 -10 26 -16 14 -33 25 -37 25 -5 0 -27 13 -50 28 -35
24 -50 28 -89 24 -41 -3 -50 0 -70 21 -27 30 -57 40 -78 27z m-1405 -80 c-3
-5 -13 -10 -21 -10 -8 0 -14 5 -14 10 0 6 9 10 21 10 11 0 17 -4 14 -10z
m1542 -106 c-3 -3 -12 -4 -19 -1 -8 3 -5 6 6 6 11 1 17 -2 13 -5z m-54 -11
c-7 -2 -19 -2 -25 0 -7 3 -2 5 12 5 14 0 19 -2 13 -5z m49 -28 c12 -16 9 -25
-7 -25 -8 0 -15 5 -15 10 0 6 -12 10 -26 10 -15 0 -23 4 -19 10 8 13 57 9 67
-5z m64 -52 c-7 -7 -26 7 -26 19 0 6 6 6 15 -2 9 -7 13 -15 11 -17z m-1424
-200 c-8 -3 8 -27 44 -66 30 -34 58 -62 62 -62 4 -1 20 -4 36 -9 23 -6 27 -9
15 -17 -7 -5 -9 -9 -3 -9 7 0 41 -20 77 -45 37 -25 75 -45 85 -45 10 0 29 -9
42 -20 13 -11 31 -20 40 -20 10 0 41 -10 70 -23 50 -22 51 -24 35 -41 -14 -13
-27 -15 -64 -10 -43 7 -58 8 -118 12 -12 1 -24 11 -28 23 -4 13 -12 18 -21 15
-8 -3 -12 -2 -9 4 10 17 -69 30 -169 28 -86 -2 -100 0 -112 17 -8 10 -14 26
-15 34 0 9 -2 30 -4 46 -14 116 -15 142 -11 161 4 13 14 25 24 27 24 6 40 7
24 0z m1173 -13 c3 -5 1 -10 -4 -10 -6 0 -11 5 -11 10 0 6 2 10 4 10 3 0 8 -4
11 -10z m-945 -30 c-18 -12 -30 -13 -30 -2 0 4 10 9 22 9 18 2 20 0 8 -7z m72
3 c-6 -2 -10 -9 -6 -14 3 -5 0 -9 -5 -9 -6 0 -11 7 -11 15 0 8 8 15 18 14 10
0 12 -3 4 -6z m860 -36 c-3 -12 -7 -16 -10 -9 -2 7 -9 10 -15 6 -7 -3 -4 1 5
9 14 11 15 16 5 27 -10 12 -9 12 4 2 11 -8 15 -21 11 -35z m35 -3 c-3 -3 -12
-4 -19 -1 -8 3 -5 6 6 6 11 1 17 -2 13 -5z m-300 -41 c-10 -2 -16 -10 -14 -16
4 -13 -27 -51 -62 -73 -32 -22 -183 -44 -227 -34 -19 5 -46 20 -61 34 -14 14
-30 26 -35 26 -5 0 -6 5 -3 11 4 6 14 8 22 5 9 -4 23 4 35 19 11 14 29 24 41
24 22 -2 22 -2 0 -6 -30 -6 -29 -19 2 -25 16 -4 22 -1 18 6 -4 6 1 5 10 -3 16
-12 21 -9 18 12 -1 4 7 4 17 -2 9 -5 31 -8 47 -6 87 9 140 18 143 24 1 4 17 7
35 8 17 1 24 -1 14 -4z m263 -3 c0 -5 -7 -10 -15 -10 -8 0 -15 5 -15 10 0 6 7
10 15 10 8 0 15 -4 15 -10z m-707 -31 c47 -19 30 -26 -23 -10 -27 9 -50 21
-50 28 0 9 6 10 23 3 12 -6 34 -15 50 -21z m709 -47 c19 -37 12 -59 -12 -37
-11 10 -15 25 -12 40 6 31 7 31 24 -3z m-88 -54 c11 -69 12 -98 6 -98 -12 0 0
-94 13 -102 7 -5 8 -8 1 -8 -6 0 -12 -25 -13 -60 -2 -50 0 -59 13 -54 9 3 16
1 16 -5 0 -6 -9 -11 -20 -11 -16 0 -20 -7 -20 -35 0 -26 3 -33 15 -29 12 5 15
-1 14 -27 -1 -28 -2 -30 -7 -11 -6 21 -8 20 -18 -13 -9 -28 -8 -35 2 -35 8 0
14 6 15 13 0 6 4 3 8 -8 6 -14 2 -28 -14 -47 -25 -30 -42 -111 -25 -116 6 -2
4 -10 -7 -18 -16 -12 -16 -13 -1 -14 9 0 20 -5 24 -11 4 -8 0 -9 -15 -4 -29 9
-28 -21 2 -45 12 -10 18 -22 14 -27 -5 -4 -13 0 -18 10 -6 9 -14 15 -20 12
-12 -8 -12 -45 1 -45 6 0 10 -5 10 -11 0 -5 -4 -8 -9 -5 -4 3 -9 -29 -10 -71
-1 -42 -4 -80 -7 -84 -6 -11 6 -60 15 -55 3 2 3 -39 0 -92 -6 -97 -30 -179
-49 -167 -13 8 -91 -36 -84 -47 3 -4 10 -6 15 -3 5 4 9 1 9 -4 0 -11 -12 -15
-42 -12 -13 2 -18 -5 -18 -22 0 -24 22 -52 32 -42 2 3 5 -2 5 -10 0 -9 -16
-25 -35 -37 -19 -11 -53 -51 -77 -88 -24 -37 -54 -77 -66 -89 -13 -12 -24 -28
-25 -37 -4 -24 -14 -30 -24 -14 -6 8 -10 10 -10 4 0 -6 -18 -19 -39 -29 -47
-21 -96 -15 -137 18 -15 12 -24 15 -19 7 5 -8 -5 -4 -21 10 -17 14 -50 36 -74
50 -24 14 -67 48 -96 76 -29 27 -66 57 -81 65 -15 8 -34 20 -41 27 -13 11 -40
16 -72 13 -8 -1 -22 -11 -32 -22 -22 -25 -28 -24 -28 5 0 14 -5 28 -10 31 -6
4 -8 11 -5 16 9 14 13 371 4 402 -5 18 -4 27 3 27 6 0 8 3 5 7 -4 3 -2 12 4
19 7 9 7 25 -1 55 -6 23 -9 58 -5 77 4 24 3 32 -5 27 -9 -6 -9 -2 -1 14 7 12
9 26 6 32 -4 5 -9 26 -11 46 -3 20 -10 43 -16 50 -6 8 -7 13 0 13 5 0 9 24 9
55 -1 30 -5 55 -10 55 -5 0 -4 7 3 15 10 12 10 15 -1 15 -12 0 -12 2 0 9 8 5
10 14 6 21 -4 7 -9 53 -12 104 -2 50 -6 96 -8 103 -2 7 0 15 5 18 20 13 97 16
140 6 24 -5 49 -6 55 -2 9 7 124 21 178 22 9 0 15 4 12 10 -9 13 3 11 30 -7
22 -14 26 -14 51 3 21 13 50 18 120 19 51 1 97 5 103 8 5 4 12 2 15 -3 4 -5
26 -9 51 -8 34 2 45 6 45 18 0 21 -20 29 -85 36 -30 3 -57 13 -68 24 -20 21
-21 20 58 21 28 0 54 3 60 6 5 4 22 5 37 3 14 -1 29 2 33 8 3 6 22 11 41 11
21 0 33 4 29 10 -4 6 7 10 27 10 25 0 43 10 73 39 51 49 72 52 79 9z m-869
-68 c3 -6 -1 -7 -9 -4 -18 7 -21 14 -7 14 6 0 13 -4 16 -10z m931 -8 c28 -23
38 -52 18 -52 -8 0 -12 5 -9 11 4 5 -6 21 -22 35 -31 27 -20 33 13 6z m189
-31 c3 -5 1 -12 -5 -16 -5 -3 -10 1 -10 9 0 18 6 21 15 7z m-203 -53 c-7 -7
-12 -8 -12 -2 0 6 3 14 7 17 3 4 9 5 12 2 2 -3 -1 -11 -7 -17z m68 -20 c0 -12
-1 -19 -3 -17 -1 2 -9 12 -16 22 -12 14 -11 17 3 17 10 0 16 -8 16 -22z m-79
-51 c-10 -9 -11 -8 -5 6 3 10 9 15 12 12 3 -3 0 -11 -7 -18z m216 17 c-3 -3
-12 -4 -19 -1 -8 3 -5 6 6 6 11 1 17 -2 13 -5z m-1516 -91 c1 -27 2 -57 3 -68
0 -11 -2 -35 -6 -53 -4 -22 -1 -37 8 -47 18 -18 18 -25 -2 -25 -14 0 -16 -8
-11 -50 7 -61 -5 -71 -42 -36 -15 14 -32 26 -38 26 -6 0 -13 6 -16 14 -7 18
-82 36 -180 42 -109 7 -111 8 -95 36 14 25 51 72 102 130 18 20 46 40 62 44
16 4 34 10 39 14 16 13 46 18 113 19 l62 1 1 -47z m1309 27 c0 -5 -2 -10 -4
-10 -3 0 -8 5 -11 10 -3 6 -1 10 4 10 6 0 11 -4 11 -10z m0 -78 c0 -4 -10 -9
-22 -9 -18 -2 -20 0 -8 7 18 12 30 13 30 2z m30 -102 c0 -5 -5 -10 -11 -10 -5
0 -7 5 -4 10 3 6 8 10 11 10 2 0 4 -4 4 -10z m261 -38 c-7 -2 -18 1 -23 6 -8
8 -4 9 13 5 13 -4 18 -8 10 -11z m-20 -175 c7 -12 17 -16 32 -12 17 5 19 4 7
-4 -14 -10 -10 -13 18 -10 4 0 9 -10 12 -23 3 -13 11 -23 18 -23 6 0 21 -8 32
-17 11 -10 24 -18 28 -18 5 0 19 -11 31 -24 12 -13 39 -32 59 -42 20 -10 47
-27 59 -38 15 -12 31 -17 50 -13 26 5 26 4 8 -9 -17 -13 -16 -14 16 -14 26 0
30 -3 19 -10 -13 -9 -11 -13 10 -30 14 -11 30 -20 35 -20 6 0 25 -14 43 -31
27 -25 32 -38 34 -77 0 -26 2 -51 3 -57 2 -5 3 -27 4 -47 1 -26 6 -38 16 -38
11 0 12 -5 5 -26 -13 -33 -13 -34 6 -34 10 0 12 -5 7 -12 -9 -16 -11 -26 -17
-107 -5 -57 -4 -62 12 -57 15 5 15 5 -1 -8 -17 -13 -17 -15 5 -31 l23 -17 -22
7 c-21 6 -23 3 -23 -29 0 -19 5 -38 10 -41 6 -4 8 -11 5 -16 -4 -5 0 -9 7 -9
9 0 10 -2 2 -8 -11 -7 -31 -141 -37 -242 -2 -54 -22 -62 -58 -27 -13 13 -39
32 -56 41 -18 9 -33 21 -33 26 0 15 -80 62 -96 56 -7 -3 -16 -1 -19 4 -4 6 -2
10 3 10 4 0 -19 28 -53 63 -74 75 -192 178 -181 157 4 -8 -7 1 -26 22 -41 45
-71 61 -86 46 -8 -8 -13 -4 -18 16 -3 14 -12 26 -20 26 -20 0 -57 55 -61 92
-2 17 -9 36 -16 40 -7 4 -7 8 -1 8 13 0 12 258 -2 268 -11 8 -12 177 -1 188 4
4 7 15 7 25 0 9 -3 19 -7 22 -5 2 -3 3 3 1 7 -1 11 13 10 34 0 21 3 52 8 71 7
29 6 33 -8 28 -9 -4 -16 -2 -16 3 0 6 5 10 11 10 13 0 33 21 37 40 2 8 11 22
22 31 11 9 18 18 16 20 -2 2 24 -23 56 -56 33 -33 64 -68 69 -78z m-66 123 c3
-6 -1 -7 -9 -4 -18 7 -21 14 -7 14 6 0 13 -4 16 -10z m-178 -16 c-3 -3 -12 -4
-19 -1 -8 3 -5 6 6 6 11 1 17 -2 13 -5z m398 -4 c-11 -5 -27 -9 -35 -9 -13 -1
-13 0 0 9 8 5 24 9 35 9 l20 0 -20 -9z m-2215 -10 c0 -5 -2 -10 -4 -10 -3 0
-8 5 -11 10 -3 6 -1 10 4 10 6 0 11 -4 11 -10z m351 -33 c34 -27 42 -63 23
-102 -9 -19 -11 -31 -5 -33 26 -9 -26 -36 -76 -40 -50 -4 -56 -7 -65 -33 -12
-35 -19 -36 -54 -5 -28 23 -42 80 -23 92 5 3 7 9 5 13 -3 4 15 18 40 31 29 17
44 31 44 45 0 17 2 18 11 5 8 -12 10 -11 7 5 -3 17 -10 20 -56 17 -28 -1 -52
1 -52 5 0 35 158 34 201 0z m1506 8 c0 -8 -4 -12 -9 -9 -5 3 -6 10 -3 15 9 13
12 11 12 -6z m-1764 -15 c4 -16 0 -20 -21 -19 -19 1 -21 3 -9 6 11 3 16 11 13
19 -3 8 -2 14 3 14 5 0 11 -9 14 -20z m2320 -14 c7 -17 -22 -31 -36 -17 -5 5
-6 14 -3 20 10 16 33 14 39 -3z m-2488 -66 c-15 -21 -24 -44 -20 -49 3 -6 2
-11 -4 -11 -6 0 -15 -10 -22 -21 -8 -15 -8 -19 0 -15 6 4 11 2 11 -3 0 -6 -5
-11 -11 -11 -21 0 -4 -45 19 -48 12 -2 20 -8 17 -13 -4 -5 -2 -9 3 -9 6 0 8
-9 5 -20 -4 -14 7 -33 35 -64 22 -24 47 -57 55 -72 22 -41 101 -104 114 -91 3
4 18 -2 33 -13 16 -11 40 -20 55 -20 32 0 68 18 60 30 -3 4 15 18 40 30 24 12
47 31 51 42 3 12 18 32 32 45 20 18 50 77 52 100 0 1 -8 0 -17 -4 -12 -3 -10
1 5 12 36 26 46 7 54 -103 8 -113 13 -160 32 -262 17 -87 29 -271 20 -294 -5
-12 -21 -16 -74 -16 -116 0 -160 13 -216 64 -52 49 -105 65 -84 26 8 -16 8
-20 -4 -20 -9 0 -20 8 -25 19 -6 10 -23 22 -38 26 -16 3 -41 17 -58 29 -16 13
-100 67 -185 121 -85 54 -159 106 -165 114 -5 9 -18 41 -27 71 -15 45 -17 72
-11 155 4 55 6 103 5 108 -1 4 3 7 8 7 6 0 10 13 10 29 0 20 6 30 20 34 11 3
20 1 20 -4 0 -5 7 -9 15 -9 20 0 19 12 -3 36 -18 18 -18 19 6 31 13 7 31 13
39 13 8 0 31 11 51 25 20 14 42 25 49 25 6 0 14 9 18 19 7 23 48 32 53 13 2
-7 -8 -31 -23 -52z m565 20 c0 -5 -2 -10 -4 -10 -3 0 -8 5 -11 10 -3 6 -1 10
4 10 6 0 11 -4 11 -10z m-440 -15 c0 -11 -31 -11 -39 -1 -9 10 -6 12 14 8 14
-2 25 -6 25 -7z m2190 -15 c0 -5 -2 -10 -4 -10 -3 0 -8 5 -11 10 -3 6 -1 10 4
10 6 0 11 -4 11 -10z m-453 -6 c-3 -3 -12 -4 -19 -1 -8 3 -5 6 6 6 11 1 17 -2
13 -5z m-1307 -8 c0 -2 -7 -6 -15 -10 -8 -3 -15 -1 -15 4 0 6 7 10 15 10 8 0
15 -2 15 -4z m-380 -23 c0 -5 -4 -14 -9 -21 -6 -10 -10 -9 -14 7 -3 14 0 21 9
21 8 0 14 -3 14 -7z m-84 -72 c6 -18 22 -43 37 -55 15 -13 27 -28 27 -35 0 -6
6 -12 13 -13 23 -2 32 -5 62 -17 16 -7 38 -10 50 -7 25 6 50 -8 41 -23 -4 -6
-21 -18 -38 -27 -42 -22 -92 -11 -118 26 -11 16 -29 32 -40 35 -24 8 -70 93
-70 131 0 35 22 26 36 -15z m64 19 c0 -5 -2 -10 -4 -10 -3 0 -8 5 -11 10 -3 6
-1 10 4 10 6 0 11 -4 11 -10z m1690 -30 c0 -5 -2 -10 -4 -10 -3 0 -8 5 -11 10
-3 6 -1 10 4 10 6 0 11 -4 11 -10z m-1300 -19 c0 -5 12 -12 28 -14 19 -3 15
-4 -15 -6 -41 -1 -66 12 -41 22 20 8 28 8 28 -2z m1260 -1 c0 -5 -2 -10 -4
-10 -3 0 -8 5 -11 10 -3 6 -1 10 4 10 6 0 11 -4 11 -10z m1023 -47 c-7 -2 -19
-2 -25 0 -7 3 -2 5 12 5 14 0 19 -2 13 -5z m-2483 -27 c0 -2 -7 -7 -16 -10 -8
-3 -12 -2 -9 4 6 10 25 14 25 6z m107 -32 c-3 -3 -12 -4 -19 -1 -8 3 -5 6 6 6
11 1 17 -2 13 -5z m33 -4 c0 -5 -5 -10 -11 -10 -5 0 -7 5 -4 10 3 6 8 10 11
10 2 0 4 -4 4 -10z m177 -76 c-3 -3 -12 -4 -19 -1 -8 3 -5 6 6 6 11 1 17 -2
13 -5z m2180 -140 c-3 -3 -12 -4 -19 -1 -8 3 -5 6 6 6 11 1 17 -2 13 -5z
m-3007 -134 c0 -6 8 -14 18 -18 23 -9 101 -65 102 -73 0 -3 -13 -5 -30 -4 -32
2 -73 32 -64 46 3 5 1 9 -4 9 -5 0 -17 11 -26 25 -9 14 -12 25 -6 25 5 0 10
-5 10 -10z m1811 -73 c-10 -9 -11 -8 -5 6 3 10 9 15 12 12 3 -3 0 -11 -7 -18z
m1159 -117 c0 -5 -5 -10 -11 -10 -5 0 -7 5 -4 10 3 6 8 10 11 10 2 0 4 -4 4
-10z m-1962 -25 c-3 -3 -9 2 -12 12 -6 14 -5 15 5 6 7 -7 10 -15 7 -18z m2017
15 c3 -6 -1 -7 -9 -4 -18 7 -21 14 -7 14 6 0 13 -4 16 -10z m-2045 -14 c-1 -5
4 -13 12 -18 10 -7 8 -8 -6 -6 -11 2 -20 11 -22 21 -1 10 2 17 8 15 5 -2 9 -7
8 -12z m817 -2 c-3 -3 -12 -4 -19 -1 -8 3 -5 6 6 6 11 1 17 -2 13 -5z m334
-121 c13 -17 13 -17 -6 -3 -11 8 -22 16 -24 17 -2 2 0 3 6 3 6 0 17 -8 24 -17z
m-206 -3 c3 -5 1 -10 -4 -10 -6 0 -11 5 -11 10 0 6 2 10 4 10 3 0 8 -4 11 -10z
m-65 -60 c0 -12 -7 -20 -17 -20 -15 0 -16 -2 -3 -10 13 -9 13 -10 0 -10 -8 0
-20 8 -27 18 -9 16 -8 18 11 18 12 -1 20 4 19 12 -2 6 2 12 7 12 6 0 10 -9 10
-20z m280 10 c0 -5 -2 -10 -4 -10 -3 0 -8 5 -11 10 -3 6 -1 10 4 10 6 0 11 -4
11 -10z m869 -24 c9 -10 9 -16 1 -21 -6 -4 -14 -4 -17 -1 -4 3 0 6 7 6 9 0 7
5 -6 15 -10 8 -14 15 -8 15 6 0 17 -6 23 -14z m-722 -22 c-3 -3 -12 -4 -19 -1
-8 3 -5 6 6 6 11 1 17 -2 13 -5z m-1142 -44 c3 -5 1 -10 -4 -10 -6 0 -11 5
-11 10 0 6 2 10 4 10 3 0 8 -4 11 -10z m632 -26 c-3 -3 -12 -4 -19 -1 -8 3 -5
6 6 6 11 1 17 -2 13 -5z m599 -13 c-3 -5 -15 -7 -26 -4 -28 7 -25 13 6 13 14
0 23 -4 20 -9z m79 -81 c3 -5 2 -10 -4 -10 -5 0 -13 5 -16 10 -3 6 -2 10 4 10
5 0 13 -4 16 -10z m370 -20 c3 -5 2 -10 -4 -10 -5 0 -13 5 -16 10 -3 6 -2 10
4 10 5 0 13 -4 16 -10z m-1275 -10 c0 -5 -7 -10 -16 -10 -8 0 -12 5 -9 10 3 6
10 10 16 10 5 0 9 -4 9 -10z m977 -5 c0 -8 -4 -12 -9 -9 -5 3 -6 10 -3 15 9
13 12 11 12 -6z"/>
<path d="M2980 2666 c0 -18 1 -19 20 -1 11 10 20 19 20 19 0 1 -9 2 -20 2 -13
0 -20 -7 -20 -20z"/>
</g>
</svg>
